<mxfile host="app.diagrams.net" modified="2021-05-18T08:37:32.415Z" agent="5.0 (Macintosh; Intel Mac OS X 10_15_2) AppleWebKit/537.36 (KHTML, like Gecko) Chrome/89.0.4389.90 Safari/537.36" etag="UMMBrjPtKy96fYgY6xf1" version="14.6.10" type="github">
  <diagram id="C5RBs43oDa-KdzZeNtuy" name="Page-1">
    <mxGraphModel dx="786" dy="435" grid="1" gridSize="10" guides="1" tooltips="1" connect="1" arrows="1" fold="1" page="1" pageScale="1" pageWidth="827" pageHeight="1169" math="0" shadow="0">
      <root>
        <mxCell id="WIyWlLk6GJQsqaUBKTNV-0" />
        <mxCell id="WIyWlLk6GJQsqaUBKTNV-1" parent="WIyWlLk6GJQsqaUBKTNV-0" />
        <mxCell id="WIyWlLk6GJQsqaUBKTNV-2" value="" style="rounded=0;html=1;jettySize=auto;orthogonalLoop=1;fontSize=11;endArrow=block;endFill=0;endSize=8;strokeWidth=1;shadow=0;labelBackgroundColor=none;edgeStyle=orthogonalEdgeStyle;" parent="WIyWlLk6GJQsqaUBKTNV-1" source="WIyWlLk6GJQsqaUBKTNV-3" target="WIyWlLk6GJQsqaUBKTNV-6" edge="1">
          <mxGeometry relative="1" as="geometry" />
        </mxCell>
        <mxCell id="WIyWlLk6GJQsqaUBKTNV-3" value="Transaction Lambda" style="rounded=1;whiteSpace=wrap;html=1;fontSize=12;glass=0;strokeWidth=1;shadow=0;" parent="WIyWlLk6GJQsqaUBKTNV-1" vertex="1">
          <mxGeometry x="59" y="80" width="120" height="40" as="geometry" />
        </mxCell>
        <mxCell id="WIyWlLk6GJQsqaUBKTNV-4" value="Yes" style="rounded=0;html=1;jettySize=auto;orthogonalLoop=1;fontSize=11;endArrow=block;endFill=0;endSize=8;strokeWidth=1;shadow=0;labelBackgroundColor=none;edgeStyle=orthogonalEdgeStyle;" parent="WIyWlLk6GJQsqaUBKTNV-1" source="WIyWlLk6GJQsqaUBKTNV-6" edge="1">
          <mxGeometry y="20" relative="1" as="geometry">
            <mxPoint as="offset" />
            <mxPoint x="119" y="290" as="targetPoint" />
          </mxGeometry>
        </mxCell>
        <mxCell id="WIyWlLk6GJQsqaUBKTNV-5" value="No" style="edgeStyle=orthogonalEdgeStyle;rounded=0;html=1;jettySize=auto;orthogonalLoop=1;fontSize=11;endArrow=block;endFill=0;endSize=8;strokeWidth=1;shadow=0;labelBackgroundColor=none;" parent="WIyWlLk6GJQsqaUBKTNV-1" source="WIyWlLk6GJQsqaUBKTNV-6" target="WIyWlLk6GJQsqaUBKTNV-7" edge="1">
          <mxGeometry y="10" relative="1" as="geometry">
            <mxPoint as="offset" />
          </mxGeometry>
        </mxCell>
        <mxCell id="WIyWlLk6GJQsqaUBKTNV-6" value="Recurring Flag" style="rhombus;whiteSpace=wrap;html=1;shadow=0;fontFamily=Helvetica;fontSize=12;align=center;strokeWidth=1;spacing=6;spacingTop=-4;" parent="WIyWlLk6GJQsqaUBKTNV-1" vertex="1">
          <mxGeometry x="69" y="170" width="100" height="80" as="geometry" />
        </mxCell>
        <mxCell id="GWxNuHLAeHblbbXC491y-1" style="edgeStyle=orthogonalEdgeStyle;rounded=0;orthogonalLoop=1;jettySize=auto;html=1;" edge="1" parent="WIyWlLk6GJQsqaUBKTNV-1" source="WIyWlLk6GJQsqaUBKTNV-7" target="GWxNuHLAeHblbbXC491y-0">
          <mxGeometry relative="1" as="geometry">
            <Array as="points">
              <mxPoint x="279" y="330" />
              <mxPoint x="279" y="330" />
            </Array>
          </mxGeometry>
        </mxCell>
        <mxCell id="WIyWlLk6GJQsqaUBKTNV-7" value="Order Lambda" style="rounded=1;whiteSpace=wrap;html=1;fontSize=12;glass=0;strokeWidth=1;shadow=0;" parent="WIyWlLk6GJQsqaUBKTNV-1" vertex="1">
          <mxGeometry x="219" y="190" width="120" height="40" as="geometry" />
        </mxCell>
        <mxCell id="GWxNuHLAeHblbbXC491y-6" style="edgeStyle=orthogonalEdgeStyle;rounded=0;orthogonalLoop=1;jettySize=auto;html=1;entryX=0;entryY=0.5;entryDx=0;entryDy=0;exitX=0.5;exitY=1;exitDx=0;exitDy=0;" edge="1" parent="WIyWlLk6GJQsqaUBKTNV-1" source="WIyWlLk6GJQsqaUBKTNV-11" target="GWxNuHLAeHblbbXC491y-0">
          <mxGeometry relative="1" as="geometry">
            <Array as="points">
              <mxPoint x="119" y="390" />
            </Array>
          </mxGeometry>
        </mxCell>
        <mxCell id="WIyWlLk6GJQsqaUBKTNV-11" value="Receipt Lambda" style="rounded=1;whiteSpace=wrap;html=1;fontSize=12;glass=0;strokeWidth=1;shadow=0;" parent="WIyWlLk6GJQsqaUBKTNV-1" vertex="1">
          <mxGeometry x="59" y="290" width="120" height="40" as="geometry" />
        </mxCell>
        <mxCell id="GWxNuHLAeHblbbXC491y-0" value="Rules Lambda" style="rounded=1;whiteSpace=wrap;html=1;fontSize=12;glass=0;strokeWidth=1;shadow=0;" vertex="1" parent="WIyWlLk6GJQsqaUBKTNV-1">
          <mxGeometry x="219" y="370" width="120" height="40" as="geometry" />
        </mxCell>
        <mxCell id="GWxNuHLAeHblbbXC491y-5" value="&lt;font style=&quot;font-size: 18px&quot;&gt;Existing Postpaid Flow&lt;/font&gt;" style="text;html=1;align=center;verticalAlign=middle;resizable=0;points=[];autosize=1;strokeColor=none;fontColor=#3333FF;" vertex="1" parent="WIyWlLk6GJQsqaUBKTNV-1">
          <mxGeometry x="50" y="20" width="200" height="20" as="geometry" />
        </mxCell>
        <mxCell id="GWxNuHLAeHblbbXC491y-8" value="" style="line;strokeWidth=2;direction=south;html=1;" vertex="1" parent="WIyWlLk6GJQsqaUBKTNV-1">
          <mxGeometry x="400" y="10" width="10" height="560" as="geometry" />
        </mxCell>
        <mxCell id="GWxNuHLAeHblbbXC491y-9" value="" style="rounded=0;html=1;jettySize=auto;orthogonalLoop=1;fontSize=11;endArrow=block;endFill=0;endSize=8;strokeWidth=1;shadow=0;labelBackgroundColor=none;edgeStyle=orthogonalEdgeStyle;" edge="1" parent="WIyWlLk6GJQsqaUBKTNV-1" source="GWxNuHLAeHblbbXC491y-10" target="GWxNuHLAeHblbbXC491y-13">
          <mxGeometry relative="1" as="geometry" />
        </mxCell>
        <mxCell id="GWxNuHLAeHblbbXC491y-10" value="Transaction Lambda" style="rounded=1;whiteSpace=wrap;html=1;fontSize=12;glass=0;strokeWidth=1;shadow=0;" vertex="1" parent="WIyWlLk6GJQsqaUBKTNV-1">
          <mxGeometry x="499" y="80" width="120" height="40" as="geometry" />
        </mxCell>
        <mxCell id="GWxNuHLAeHblbbXC491y-11" value="Yes" style="rounded=0;html=1;jettySize=auto;orthogonalLoop=1;fontSize=11;endArrow=block;endFill=0;endSize=8;strokeWidth=1;shadow=0;labelBackgroundColor=none;edgeStyle=orthogonalEdgeStyle;entryX=0.5;entryY=0;entryDx=0;entryDy=0;" edge="1" parent="WIyWlLk6GJQsqaUBKTNV-1" source="GWxNuHLAeHblbbXC491y-13" target="GWxNuHLAeHblbbXC491y-17">
          <mxGeometry y="21" relative="1" as="geometry">
            <mxPoint as="offset" />
            <mxPoint x="559" y="290" as="targetPoint" />
          </mxGeometry>
        </mxCell>
        <mxCell id="GWxNuHLAeHblbbXC491y-12" value="No" style="edgeStyle=orthogonalEdgeStyle;rounded=0;html=1;jettySize=auto;orthogonalLoop=1;fontSize=11;endArrow=block;endFill=0;endSize=8;strokeWidth=1;shadow=0;labelBackgroundColor=none;" edge="1" parent="WIyWlLk6GJQsqaUBKTNV-1" source="GWxNuHLAeHblbbXC491y-13" target="GWxNuHLAeHblbbXC491y-15">
          <mxGeometry y="10" relative="1" as="geometry">
            <mxPoint as="offset" />
          </mxGeometry>
        </mxCell>
        <mxCell id="GWxNuHLAeHblbbXC491y-13" value="Recurring Flag" style="rhombus;whiteSpace=wrap;html=1;shadow=0;fontFamily=Helvetica;fontSize=12;align=center;strokeWidth=1;spacing=6;spacingTop=-4;" vertex="1" parent="WIyWlLk6GJQsqaUBKTNV-1">
          <mxGeometry x="509" y="170" width="100" height="80" as="geometry" />
        </mxCell>
        <mxCell id="GWxNuHLAeHblbbXC491y-24" style="edgeStyle=orthogonalEdgeStyle;rounded=0;orthogonalLoop=1;jettySize=auto;html=1;entryX=0.5;entryY=0;entryDx=0;entryDy=0;" edge="1" parent="WIyWlLk6GJQsqaUBKTNV-1" source="GWxNuHLAeHblbbXC491y-15" target="GWxNuHLAeHblbbXC491y-21">
          <mxGeometry relative="1" as="geometry" />
        </mxCell>
        <mxCell id="GWxNuHLAeHblbbXC491y-36" style="edgeStyle=orthogonalEdgeStyle;rounded=0;orthogonalLoop=1;jettySize=auto;html=1;exitX=1;exitY=0.5;exitDx=0;exitDy=0;" edge="1" parent="WIyWlLk6GJQsqaUBKTNV-1" source="GWxNuHLAeHblbbXC491y-15" target="GWxNuHLAeHblbbXC491y-35">
          <mxGeometry relative="1" as="geometry" />
        </mxCell>
        <mxCell id="GWxNuHLAeHblbbXC491y-15" value="Order Lambda" style="rounded=1;whiteSpace=wrap;html=1;fontSize=12;glass=0;strokeWidth=1;shadow=0;" vertex="1" parent="WIyWlLk6GJQsqaUBKTNV-1">
          <mxGeometry x="660" y="190" width="100" height="40" as="geometry" />
        </mxCell>
        <mxCell id="GWxNuHLAeHblbbXC491y-22" style="edgeStyle=orthogonalEdgeStyle;rounded=0;orthogonalLoop=1;jettySize=auto;html=1;entryX=0;entryY=0.5;entryDx=0;entryDy=0;" edge="1" parent="WIyWlLk6GJQsqaUBKTNV-1" source="GWxNuHLAeHblbbXC491y-17" target="GWxNuHLAeHblbbXC491y-18">
          <mxGeometry relative="1" as="geometry">
            <Array as="points">
              <mxPoint x="559" y="450" />
            </Array>
          </mxGeometry>
        </mxCell>
        <mxCell id="GWxNuHLAeHblbbXC491y-34" style="edgeStyle=orthogonalEdgeStyle;rounded=0;orthogonalLoop=1;jettySize=auto;html=1;" edge="1" parent="WIyWlLk6GJQsqaUBKTNV-1" source="GWxNuHLAeHblbbXC491y-17" target="GWxNuHLAeHblbbXC491y-32">
          <mxGeometry relative="1" as="geometry">
            <Array as="points">
              <mxPoint x="457" y="330" />
            </Array>
          </mxGeometry>
        </mxCell>
        <mxCell id="GWxNuHLAeHblbbXC491y-17" value="Receipt Lambda" style="rounded=1;whiteSpace=wrap;html=1;fontSize=12;glass=0;strokeWidth=1;shadow=0;" vertex="1" parent="WIyWlLk6GJQsqaUBKTNV-1">
          <mxGeometry x="499" y="310" width="120" height="40" as="geometry" />
        </mxCell>
        <mxCell id="GWxNuHLAeHblbbXC491y-18" value="Rules Lambda" style="rounded=1;whiteSpace=wrap;html=1;fontSize=12;glass=0;strokeWidth=1;shadow=0;" vertex="1" parent="WIyWlLk6GJQsqaUBKTNV-1">
          <mxGeometry x="570" y="430" width="120" height="40" as="geometry" />
        </mxCell>
        <mxCell id="GWxNuHLAeHblbbXC491y-19" value="&lt;font style=&quot;font-size: 18px&quot;&gt;New Postpaid Flow&lt;/font&gt;" style="text;html=1;align=center;verticalAlign=middle;resizable=0;points=[];autosize=1;strokeColor=none;rounded=0;shadow=0;sketch=0;glass=0;labelBorderColor=none;labelBackgroundColor=none;fontColor=#3333FF;" vertex="1" parent="WIyWlLk6GJQsqaUBKTNV-1">
          <mxGeometry x="505" y="20" width="170" height="20" as="geometry" />
        </mxCell>
        <mxCell id="GWxNuHLAeHblbbXC491y-23" style="edgeStyle=orthogonalEdgeStyle;rounded=0;orthogonalLoop=1;jettySize=auto;html=1;entryX=1;entryY=0.5;entryDx=0;entryDy=0;" edge="1" parent="WIyWlLk6GJQsqaUBKTNV-1" source="GWxNuHLAeHblbbXC491y-21" target="GWxNuHLAeHblbbXC491y-17">
          <mxGeometry relative="1" as="geometry" />
        </mxCell>
        <mxCell id="GWxNuHLAeHblbbXC491y-31" style="edgeStyle=orthogonalEdgeStyle;rounded=0;orthogonalLoop=1;jettySize=auto;html=1;entryX=1;entryY=0.5;entryDx=0;entryDy=0;" edge="1" parent="WIyWlLk6GJQsqaUBKTNV-1" source="GWxNuHLAeHblbbXC491y-21" target="GWxNuHLAeHblbbXC491y-18">
          <mxGeometry relative="1" as="geometry" />
        </mxCell>
        <mxCell id="GWxNuHLAeHblbbXC491y-21" value="Invalid Order Id / Null Order" style="rhombus;whiteSpace=wrap;html=1;shadow=0;fontFamily=Helvetica;fontSize=12;align=center;strokeWidth=1;spacing=6;spacingTop=-4;fillColor=#60a917;strokeColor=#2D7600;fontColor=#ffffff;" vertex="1" parent="WIyWlLk6GJQsqaUBKTNV-1">
          <mxGeometry x="650" y="280" width="120" height="100" as="geometry" />
        </mxCell>
        <mxCell id="GWxNuHLAeHblbbXC491y-29" value="No" style="text;html=1;align=center;verticalAlign=middle;resizable=0;points=[];autosize=1;strokeColor=none;" vertex="1" parent="WIyWlLk6GJQsqaUBKTNV-1">
          <mxGeometry x="695" y="370" width="30" height="20" as="geometry" />
        </mxCell>
        <mxCell id="GWxNuHLAeHblbbXC491y-30" value="Yes" style="text;html=1;align=center;verticalAlign=middle;resizable=0;points=[];autosize=1;strokeColor=none;" vertex="1" parent="WIyWlLk6GJQsqaUBKTNV-1">
          <mxGeometry x="640" y="290" width="40" height="20" as="geometry" />
        </mxCell>
        <mxCell id="GWxNuHLAeHblbbXC491y-32" value="Stop Process if any error" style="shape=ext;double=1;rounded=1;whiteSpace=wrap;html=1;fillColor=#a20025;strokeColor=#6F0000;fontColor=#ffffff;" vertex="1" parent="WIyWlLk6GJQsqaUBKTNV-1">
          <mxGeometry x="414" y="380" width="86" height="40" as="geometry" />
        </mxCell>
        <mxCell id="GWxNuHLAeHblbbXC491y-35" value="Stop Process if any error" style="shape=ext;double=1;rounded=1;whiteSpace=wrap;html=1;fillColor=#a20025;strokeColor=#6F0000;fontColor=#ffffff;" vertex="1" parent="WIyWlLk6GJQsqaUBKTNV-1">
          <mxGeometry x="741" y="250" width="86" height="40" as="geometry" />
        </mxCell>
        <mxCell id="GWxNuHLAeHblbbXC491y-43" value="" style="edgeStyle=orthogonalEdgeStyle;rounded=0;orthogonalLoop=1;jettySize=auto;html=1;" edge="1" parent="WIyWlLk6GJQsqaUBKTNV-1" source="GWxNuHLAeHblbbXC491y-37" target="GWxNuHLAeHblbbXC491y-38">
          <mxGeometry relative="1" as="geometry" />
        </mxCell>
        <mxCell id="GWxNuHLAeHblbbXC491y-37" value="" style="shape=ext;double=1;rounded=1;whiteSpace=wrap;html=1;fillColor=#a20025;strokeColor=#6F0000;fontColor=#ffffff;" vertex="1" parent="WIyWlLk6GJQsqaUBKTNV-1">
          <mxGeometry x="414" y="500" width="56" height="20" as="geometry" />
        </mxCell>
        <mxCell id="GWxNuHLAeHblbbXC491y-38" value="Mostly Existing Flow&amp;nbsp;" style="text;html=1;align=center;verticalAlign=middle;resizable=0;points=[];autosize=1;strokeColor=none;" vertex="1" parent="WIyWlLk6GJQsqaUBKTNV-1">
          <mxGeometry x="510" y="500" width="130" height="20" as="geometry" />
        </mxCell>
        <mxCell id="GWxNuHLAeHblbbXC491y-45" style="edgeStyle=orthogonalEdgeStyle;rounded=0;orthogonalLoop=1;jettySize=auto;html=1;" edge="1" parent="WIyWlLk6GJQsqaUBKTNV-1" source="GWxNuHLAeHblbbXC491y-44">
          <mxGeometry relative="1" as="geometry">
            <mxPoint x="510" y="540" as="targetPoint" />
          </mxGeometry>
        </mxCell>
        <mxCell id="GWxNuHLAeHblbbXC491y-44" value="" style="shape=ext;double=1;rounded=1;whiteSpace=wrap;html=1;fillColor=#60a917;strokeColor=#2D7600;fontColor=#ffffff;" vertex="1" parent="WIyWlLk6GJQsqaUBKTNV-1">
          <mxGeometry x="414" y="530" width="56" height="20" as="geometry" />
        </mxCell>
        <mxCell id="GWxNuHLAeHblbbXC491y-46" value="&amp;nbsp;New change in existing Flow" style="text;html=1;align=center;verticalAlign=middle;resizable=0;points=[];autosize=1;strokeColor=none;" vertex="1" parent="WIyWlLk6GJQsqaUBKTNV-1">
          <mxGeometry x="505" y="530" width="170" height="20" as="geometry" />
        </mxCell>
      </root>
    </mxGraphModel>
  </diagram>
</mxfile>
